<?xml version="1.0" standalone="no"?>
<!DOCTYPE svg PUBLIC "-//W3C//DTD SVG 20010904//EN"
 "http://www.w3.org/TR/2001/REC-SVG-20010904/DTD/svg10.dtd">
<svg version="1.0" xmlns="http://www.w3.org/2000/svg"
 width="300.000000pt" height="300.000000pt" viewBox="0 0 300.000000 300.000000"
 preserveAspectRatio="xMidYMid meet">
<metadata>
Created by potrace 1.11, written by Peter Selinger 2001-2013
</metadata>
<g transform="translate(0.000000,300.000000) scale(0.100000,-0.100000)"
fill="#000000" stroke="none">
<path d="M0 2393 c1 -11 25 -56 86 -160 55 -94 220 -379 461 -798 211 -365
359 -623 429 -742 32 -57 63 -101 69 -100 8 3 249 407 273 458 19 41 177 309
182 309 5 0 122 -197 142 -240 25 -52 307 -525 314 -527 8 -3 71 102 283 471
13 22 90 156 171 296 81 140 207 359 280 485 73 127 172 299 221 384 49 84 86
157 83 162 -6 11 -2994 12 -2994 2z m926 -33 c6 -8 79 -132 161 -275 82 -143
205 -356 272 -473 71 -122 121 -219 117 -227 -6 -16 -330 -582 -396 -693 l-38
-63 -68 118 c-37 65 -90 156 -117 203 -28 47 -86 148 -130 225 -44 77 -88 154
-97 170 -10 17 -143 246 -295 510 -152 264 -281 484 -286 490 -28 28 -1 30
429 30 380 0 438 -2 448 -15z m1124 14 c0 -7 -543 -940 -548 -942 -4 -1 -33
42 -64 95 -31 54 -153 265 -271 470 -118 205 -213 373 -212 375 3 3 1095 5
1095 2z m905 -13 c-5 -12 -89 -161 -220 -386 -32 -55 -101 -174 -153 -265
-183 -318 -245 -426 -297 -515 -29 -49 -62 -106 -73 -125 -64 -114 -245 -426
-250 -432 -4 -4 -56 79 -117 184 -60 105 -143 248 -183 317 -41 69 -90 156
-110 192 l-36 66 49 84 c90 155 377 654 397 689 11 19 43 73 70 120 l49 85
440 0 c365 0 438 -2 434 -14z"/>
</g>
</svg>
